<?xml version="1.0" encoding="UTF-8" standalone="no"?>
<!DOCTYPE svg PUBLIC "-//W3C//DTD SVG 1.1//EN"
 "http://www.w3.org/Graphics/SVG/1.1/DTD/svg11.dtd">
<!-- Generated by graphviz version 2.43.0 (0)
 -->
<!-- Title: round&#45;table Pages: 1 -->
<svg width="640pt" height="291pt"
 viewBox="0.00 0.00 639.50 291.00" xmlns="http://www.w3.org/2000/svg" xmlns:xlink="http://www.w3.org/1999/xlink">
<g id="graph0" class="graph" transform="scale(1 1) rotate(0) translate(4 287)">
<title>round&#45;table</title>
<polygon fill="white" stroke="transparent" points="-4,4 -4,-287 635.5,-287 635.5,4 -4,4"/>
<!-- BP -->
<g id="node1" class="node">
<title>BP</title>
<polygon fill="none" stroke="black" points="414,-283 292,-283 292,-247 414,-247 414,-283"/>
<text text-anchor="middle" x="353" y="-261.3" font-family="Times,serif" font-size="14.00">Блок Питания</text>
</g>
<!-- Rpi -->
<g id="node2" class="node">
<title>Rpi</title>
<polygon fill="none" stroke="black" points="248.5,-196 139.5,-196 139.5,-160 248.5,-160 248.5,-196"/>
<text text-anchor="middle" x="194" y="-174.3" font-family="Times,serif" font-size="14.00">Raspberry pi</text>
</g>
<!-- BP&#45;&gt;Rpi -->
<g id="edge1" class="edge">
<title>BP&#45;&gt;Rpi</title>
<path fill="none" stroke="black" d="M320.82,-246.8C296.07,-233.56 261.68,-215.18 234.96,-200.9"/>
<polygon fill="black" stroke="black" points="236.33,-197.66 225.86,-196.03 233.03,-203.83 236.33,-197.66"/>
<text text-anchor="middle" x="293" y="-217.8" font-family="Times,serif" font-size="14.00">5v</text>
</g>
<!-- Xolod -->
<g id="node3" class="node">
<title>Xolod</title>
<polygon fill="none" stroke="black" points="439.5,-196 266.5,-196 266.5,-160 439.5,-160 439.5,-196"/>
<text text-anchor="middle" x="353" y="-174.3" font-family="Times,serif" font-size="14.00">Система охлаждения</text>
</g>
<!-- BP&#45;&gt;Xolod -->
<g id="edge8" class="edge">
<title>BP&#45;&gt;Xolod</title>
<path fill="none" stroke="black" d="M353,-246.8C353,-235.16 353,-219.55 353,-206.24"/>
<polygon fill="black" stroke="black" points="356.5,-206.18 353,-196.18 349.5,-206.18 356.5,-206.18"/>
<text text-anchor="middle" x="366.5" y="-217.8" font-family="Times,serif" font-size="14.00">12v</text>
</g>
<!-- CNC -->
<g id="node4" class="node">
<title>CNC</title>
<polygon fill="none" stroke="black" points="422.5,-109 323.5,-109 323.5,-73 422.5,-73 422.5,-109"/>
<text text-anchor="middle" x="373" y="-87.3" font-family="Times,serif" font-size="14.00">CNC Shield</text>
</g>
<!-- BP&#45;&gt;CNC -->
<g id="edge2" class="edge">
<title>BP&#45;&gt;CNC</title>
<path fill="none" stroke="black" d="M392.98,-246.89C413.74,-235.69 437.18,-218.86 449,-196 464.5,-166.03 435.32,-135.26 408.75,-115.04"/>
<polygon fill="black" stroke="black" points="410.78,-112.19 400.64,-109.12 406.66,-117.84 410.78,-112.19"/>
<text text-anchor="middle" x="483" y="-174.3" font-family="Times,serif" font-size="14.00">12v, 24v</text>
</g>
<!-- Rpi&#45;&gt;CNC -->
<g id="edge4" class="edge">
<title>Rpi&#45;&gt;CNC</title>
<path fill="none" stroke="black" d="M230.22,-159.8C258.46,-146.39 297.82,-127.7 328.07,-113.34"/>
<polygon fill="black" stroke="black" points="329.6,-116.48 337.14,-109.03 326.6,-110.16 329.6,-116.48"/>
<text text-anchor="middle" x="314" y="-130.8" font-family="Times,serif" font-size="14.00">GPIO</text>
</g>
<!-- Cam -->
<g id="node5" class="node">
<title>Cam</title>
<polygon fill="none" stroke="black" points="231.5,-109 156.5,-109 156.5,-73 231.5,-73 231.5,-109"/>
<text text-anchor="middle" x="194" y="-87.3" font-family="Times,serif" font-size="14.00">Камеры</text>
</g>
<!-- Rpi&#45;&gt;Cam -->
<g id="edge3" class="edge">
<title>Rpi&#45;&gt;Cam</title>
<path fill="none" stroke="black" d="M194,-159.8C194,-148.16 194,-132.55 194,-119.24"/>
<polygon fill="black" stroke="black" points="197.5,-119.18 194,-109.18 190.5,-119.18 197.5,-119.18"/>
<text text-anchor="middle" x="210.5" y="-130.8" font-family="Times,serif" font-size="14.00">USB</text>
</g>
<!-- Fr -->
<g id="node6" class="node">
<title>Fr</title>
<polygon fill="none" stroke="black" points="278,-36 0,-36 0,0 278,0 278,-36"/>
<text text-anchor="middle" x="139" y="-14.3" font-family="Times,serif" font-size="14.00">Двигатель навесного оборудования</text>
</g>
<!-- CNC&#45;&gt;Fr -->
<g id="edge5" class="edge">
<title>CNC&#45;&gt;Fr</title>
<path fill="none" stroke="black" d="M323.37,-74.94C288.89,-64.48 242.57,-50.42 204.98,-39.02"/>
<polygon fill="black" stroke="black" points="205.71,-35.58 195.12,-36.03 203.68,-42.28 205.71,-35.58"/>
</g>
<!-- Knok -->
<g id="node7" class="node">
<title>Knok</title>
<polygon fill="none" stroke="black" points="450,-36 296,-36 296,0 450,0 450,-36"/>
<text text-anchor="middle" x="373" y="-14.3" font-family="Times,serif" font-size="14.00">Концевые датчики</text>
</g>
<!-- CNC&#45;&gt;Knok -->
<g id="edge7" class="edge">
<title>CNC&#45;&gt;Knok</title>
<path fill="none" stroke="black" d="M373,-72.81C373,-64.79 373,-55.05 373,-46.07"/>
<polygon fill="black" stroke="black" points="376.5,-46.03 373,-36.03 369.5,-46.03 376.5,-46.03"/>
</g>
<!-- Shag -->
<g id="node8" class="node">
<title>Shag</title>
<polygon fill="none" stroke="black" points="631.5,-36 468.5,-36 468.5,0 631.5,0 631.5,-36"/>
<text text-anchor="middle" x="550" y="-14.3" font-family="Times,serif" font-size="14.00">Шаговый двигатель</text>
</g>
<!-- CNC&#45;&gt;Shag -->
<g id="edge6" class="edge">
<title>CNC&#45;&gt;Shag</title>
<path fill="none" stroke="black" d="M415.4,-72.99C440.17,-63.06 471.64,-50.43 497.91,-39.89"/>
<polygon fill="black" stroke="black" points="499.36,-43.08 507.34,-36.11 496.75,-36.59 499.36,-43.08"/>
</g>
</g>
</svg>
